<svg width="29" height="29" viewBox="0 0 29 29" fill="none" xmlns="http://www.w3.org/2000/svg">
<ellipse cx="14.5" cy="14.5" rx="14.5" ry="14.5" fill="url(#paint0_linear_238:10376)"/>
<path d="M23.2 14.6642C23.2 15.4849 22.5434 16.1415 21.7227 16.1415H15.8133V21.7227C15.8133 22.5434 15.1567 23.2 14.3359 23.2C13.5151 23.2 12.8585 22.5434 12.8585 21.7227V16.1415H7.27741C6.45665 16.1415 5.80005 15.4849 5.80005 14.6642C5.80005 13.8434 6.45665 13.1868 7.27741 13.1868H12.8585V7.27738C12.8585 6.45662 13.5151 5.80002 14.3359 5.80002C15.1567 5.80002 15.8133 6.45662 15.8133 7.27738V13.1868H21.7227C22.5434 13.1868 23.2 13.8434 23.2 14.6642Z" fill="white"/>
<defs>
<linearGradient id="paint0_linear_238:10376" x1="2.94531" y1="36.7031" x2="-13.7022" y2="13.966" gradientUnits="userSpaceOnUse">
<stop offset="0.298343" stop-color="#4552CB"/>
<stop offset="1" stop-color="#4596EA"/>
</linearGradient>
</defs>
</svg>
