<svg width="22" height="16" viewBox="0 0 22 16" fill="none" xmlns="http://www.w3.org/2000/svg">
<path d="M21.1401 8C21.1401 8.58667 20.6601 9.06667 20.0734 9.06667H4.50008L9.32675 13.92C9.75342 14.3467 9.75342 15.0133 9.32675 15.44C9.11342 15.6533 8.84674 15.76 8.58008 15.76C8.31341 15.76 8.02008 15.6533 7.83341 15.44L1.19342 8.77333C0.76675 8.34666 0.76675 7.68 1.19342 7.28L7.83341 0.613332C8.26008 0.186665 8.92674 0.186665 9.35341 0.613332C9.78008 1.04 9.78008 1.70667 9.35341 2.13333L4.50008 6.93333H20.0734C20.6601 6.93333 21.1401 7.41333 21.1401 8Z" fill="#4552CB"/>
</svg>
