<svg width="30" height="30" viewBox="0 0 50 50" fill="none" xmlns="http://www.w3.org/2000/svg">
<path d="M29.168 39.5833C37.0242 39.5833 40.9534 39.5833 43.393 37.1417C45.8346 34.7021 45.8346 30.7729 45.8346 22.9167C45.8346 15.0604 45.8346 11.1313 43.393 8.69167C40.9534 6.25 37.0242 6.25 29.168 6.25H20.8346C12.9784 6.25 9.04922 6.25 6.60964 8.69167C4.16797 11.1313 4.16797 15.0604 4.16797 22.9167C4.16797 30.7729 4.16797 34.7021 6.60964 37.1417C7.97005 38.5042 9.79297 39.1063 12.5013 39.3708" stroke="#3947CB" stroke-width="3" stroke-linecap="round" stroke-linejoin="round"/>
<path d="M25 22.917V22.9378" stroke="#3947CB" stroke-width="3" stroke-linecap="round"/>
<path d="M16.668 22.917V22.9378" stroke="#3947CB" stroke-width="3" stroke-linecap="round"/>
<path d="M33.3359 22.917V22.9378" stroke="#3947CB" stroke-width="3" stroke-linecap="round"/>
<path d="M29.1708 39.583C26.5958 39.583 23.7583 40.6247 21.1687 41.9684C17.0062 44.1288 14.925 45.2101 13.9 44.5205C12.875 43.833 13.0687 41.6976 13.4583 37.4288L13.5458 36.458" stroke="#3947CB" stroke-width="3" stroke-linecap="round"/>
</svg>
