<svg width="30" height="30" viewBox="0 0 50 50" fill="none" xmlns="http://www.w3.org/2000/svg">
<path fill-rule="evenodd" clip-rule="evenodd" d="M17.3436 9.71493L17.4009 9.46493C17.5102 9.00035 17.6894 8.31701 18.0592 7.64409C18.4363 6.95868 19.0206 6.26389 19.9373 5.8066C20.8509 5.35139 21.9956 5.1816 23.4113 5.3691C24.9738 5.57743 28.1123 6.0941 30.8852 7.50451C33.6738 8.92326 36.2863 11.3639 36.2863 15.4285C36.2863 17.5285 35.4738 19.7816 34.6863 21.2503C34.3081 21.9566 33.8592 22.6316 33.4092 22.9951C33.3061 23.0785 33.1592 23.1826 32.9769 23.2556C32.4769 24.8988 31.4815 26.3476 30.1269 27.4037C28.7722 28.4598 27.1245 29.0718 25.4088 29.1559C23.6932 29.2401 21.9935 28.7923 20.542 27.8737C19.0906 26.9552 17.9582 25.6108 17.2998 24.0243L17.2748 24.0285L16.905 23.5795L16.904 23.5774L16.9019 23.5753L16.8967 23.5681L16.879 23.5472C16.7898 23.4363 16.704 23.3227 16.6217 23.2066C16.3968 22.8946 16.1848 22.5735 15.9863 22.2441C15.4967 21.4337 14.9061 20.2795 14.5279 18.9326C14.1509 17.5858 13.9779 16.0066 14.3738 14.3774C14.7592 12.792 15.6686 11.2316 17.3154 9.83785L17.3436 9.71493ZM19.0936 22.8795C19.5453 24.1787 20.4129 25.2927 21.5619 26.049C22.7108 26.8052 24.0771 27.1615 25.4491 27.0627C26.821 26.9639 28.1221 26.4154 29.1508 25.5023C30.1796 24.5892 30.8785 23.3623 31.1394 22.0118L31.2571 22.0514C31.253 21.9924 31.2509 21.9334 31.2509 21.8743C31.2509 20.1503 31.0113 18.9472 30.7884 18.1972C30.7448 18.0512 30.6965 17.9067 30.6436 17.7639L30.6009 17.766H30.5592C29.7803 17.7828 29.0016 17.7235 28.2342 17.5889C26.4456 17.2868 24.0238 16.5326 21.1717 14.7858C21.1092 14.9253 21.0467 15.0826 20.9842 15.2576C20.78 15.8358 20.6123 16.5222 20.4675 17.2472C20.3394 17.8858 20.2342 18.5285 20.1342 19.1306L20.0956 19.3681C19.9884 20.0139 19.8811 20.6483 19.7561 21.1076C19.5373 21.9056 19.3144 22.4722 19.0936 22.8785V22.8795ZM17.6352 20.9389C17.2425 20.2556 16.8134 19.366 16.5352 18.3712C16.2238 17.2608 16.1092 16.0587 16.3988 14.8701C16.68 13.7139 17.3602 12.4983 18.7592 11.3462C19.0113 11.1753 19.1259 10.9462 19.1571 10.8847V10.8837C19.2118 10.7711 19.2557 10.6535 19.2884 10.5326C19.3217 10.4139 19.3581 10.2514 19.3925 10.1056L19.429 9.94201C19.5279 9.52222 19.6561 9.06493 19.8852 8.64722C20.1081 8.24305 20.4134 7.89722 20.8675 7.67118C21.3238 7.44305 22.03 7.2868 23.1363 7.43472C24.6498 7.63576 27.4967 8.11805 29.9404 9.3618C32.3675 10.5962 34.2029 12.4649 34.2029 15.4285C34.2029 16.7931 33.7446 18.3451 33.1925 19.5691C33.0884 18.7712 32.9384 18.1191 32.7842 17.6024C32.6767 17.2332 32.5427 16.8721 32.3831 16.5222C32.323 16.3925 32.257 16.2657 32.1852 16.142L32.1675 16.1139L32.1613 16.1035L32.1581 16.0983L32.1561 16.0951L31.7706 15.4972L31.0811 15.6358L31.0665 15.6389L30.9654 15.6524C30.8104 15.6697 30.6547 15.6801 30.4988 15.6837C29.8565 15.6961 29.2146 15.6459 28.5821 15.5337C26.9019 15.2503 24.4331 14.4785 21.4342 12.4816L20.705 11.9951L20.1019 12.6306C19.605 13.1535 19.2675 13.867 19.0206 14.5618C18.7686 15.2753 18.5779 16.0722 18.4248 16.8368C18.2894 17.5139 18.1769 18.1941 18.079 18.7951L18.0394 19.0285C17.9279 19.7066 17.8373 20.2243 17.7456 20.5597C17.7081 20.6972 17.6717 20.8243 17.6352 20.9389ZM32.0988 21.3764L32.0946 21.3785L32.0977 21.3764H32.0988Z" fill="#3947CB"/>
<path d="M16.905 23.5795L17.2748 24.0285L17.2998 24.0243C17.9582 25.6108 19.0906 26.9552 20.542 27.8737C21.9935 28.7923 23.6932 29.2401 25.4088 29.1559C27.1245 29.0718 28.7722 28.4598 30.1269 27.4037C31.4815 26.3476 32.4769 24.8988 32.9769 23.2556C33.1592 23.1826 33.3061 23.0785 33.4092 22.9951C33.8592 22.6316 34.3081 21.9566 34.6863 21.2503C35.4738 19.7816 36.2863 17.5285 36.2863 15.4285C36.2863 11.3639 33.6738 8.92326 30.8852 7.50451C28.1123 6.0941 24.9738 5.57743 23.4113 5.3691C21.9956 5.1816 20.8509 5.35139 19.9373 5.8066C19.0206 6.26389 18.4363 6.95868 18.0592 7.64409C17.6894 8.31701 17.5102 9.00035 17.4009 9.46493L17.3436 9.71493L17.3154 9.83785C15.6686 11.2316 14.7592 12.792 14.3738 14.3774C13.9779 16.0066 14.1509 17.5858 14.5279 18.9326C14.9061 20.2795 15.4967 21.4337 15.9863 22.2441C16.1848 22.5735 16.3968 22.8946 16.6217 23.2066C16.704 23.3227 16.7898 23.4363 16.879 23.5472L16.8967 23.5681L16.9019 23.5753L16.904 23.5774L16.905 23.5795ZM16.905 23.5795L17.7092 22.917M32.1561 16.0951L32.1581 16.0983L32.1613 16.1035L32.1675 16.1139L32.1852 16.142C32.257 16.2657 32.323 16.3925 32.3831 16.5222C32.5427 16.8721 32.6767 17.2332 32.7842 17.6024C32.9384 18.1191 33.0884 18.7712 33.1925 19.5691C33.7446 18.3451 34.2029 16.7931 34.2029 15.4285C34.2029 12.4649 32.3675 10.5962 29.9404 9.3618C27.4967 8.11805 24.6498 7.63576 23.1363 7.43472C22.03 7.2868 21.3238 7.44305 20.8675 7.67118C20.4134 7.89722 20.1081 8.24305 19.8852 8.64722C19.6561 9.06493 19.5279 9.52222 19.429 9.94201L19.3925 10.1056C19.3581 10.2514 19.3217 10.4139 19.2884 10.5326C19.2557 10.6535 19.2118 10.7711 19.1571 10.8837V10.8847C19.1259 10.9462 19.0113 11.1753 18.7592 11.3462C17.3602 12.4983 16.68 13.7139 16.3988 14.8701C16.1092 16.0587 16.2238 17.2608 16.5352 18.3712C16.8134 19.366 17.2425 20.2556 17.6352 20.9389C17.6717 20.8243 17.7081 20.6972 17.7456 20.5597C17.8373 20.2243 17.9279 19.7066 18.0394 19.0285L18.079 18.7951C18.1769 18.1941 18.2894 17.5139 18.4248 16.8368C18.5779 16.0722 18.7686 15.2753 19.0206 14.5618C19.2675 13.867 19.605 13.1535 20.1019 12.6306L20.705 11.9951L21.4342 12.4816C24.4331 14.4785 26.9019 15.2503 28.5821 15.5337C29.2146 15.6459 29.8565 15.6961 30.4988 15.6837C30.6547 15.6801 30.8104 15.6697 30.9654 15.6524L31.0665 15.6389L31.0811 15.6358L31.7706 15.4972L32.1561 16.0951ZM32.1561 16.0951L31.2811 16.6576M19.0936 22.8795C19.5453 24.1787 20.4129 25.2927 21.5619 26.049C22.7108 26.8052 24.0771 27.1615 25.4491 27.0627C26.821 26.9639 28.1221 26.4154 29.1508 25.5023C30.1796 24.5892 30.8785 23.3623 31.1394 22.0118L31.2571 22.0514C31.253 21.9924 31.2509 21.9334 31.2509 21.8743C31.2509 20.1503 31.0113 18.9472 30.7884 18.1972C30.7448 18.0512 30.6965 17.9067 30.6436 17.7639L30.6009 17.766H30.5592C29.7803 17.7828 29.0016 17.7235 28.2342 17.5889C26.4456 17.2868 24.0238 16.5326 21.1717 14.7858C21.1092 14.9253 21.0467 15.0826 20.9842 15.2576C20.78 15.8358 20.6123 16.5222 20.4675 17.2472C20.3394 17.8858 20.2342 18.5285 20.1342 19.1306L20.0956 19.3681C19.9884 20.0139 19.8811 20.6483 19.7561 21.1076C19.5373 21.9056 19.3144 22.4722 19.0936 22.8785V22.8795ZM32.0946 21.3785L32.0988 21.3764H32.0977L32.0946 21.3785Z" stroke="#3947CB" stroke-width="0.5"/>
<path fill-rule="evenodd" clip-rule="evenodd" d="M18.6604 30.0573C18.4396 29.6177 18.1677 29.075 17.7083 29.1802C12.0792 30.4615 6.25 34.1604 6.25 38.0938V43.75H43.75V38.0938C43.75 34.9959 40.1333 32.0427 35.8469 30.3021L35.8417 30.2917C35.8369 30.2823 35.832 30.2729 35.8271 30.2636L35.7927 30.2802C34.6542 29.8219 33.4687 29.4469 32.2917 29.1802C31.7677 29.0604 31.226 29.7813 30.9896 30.2323H18.75C18.7208 30.1782 18.6917 30.1177 18.6604 30.0573V30.0573ZM32.7115 31.4323C33.1667 31.5584 33.6198 31.7 34.0667 31.8563C34.0792 32.2125 34.0521 32.6334 33.9937 33.0625C33.9344 33.5069 33.8396 33.9458 33.7104 34.375H32.2917C32.0983 34.3751 31.9087 34.4291 31.7442 34.5308C31.5798 34.6326 31.4469 34.7781 31.3604 34.9511L30.3188 37.0344C30.2463 37.1789 30.2085 37.3384 30.2083 37.5V39.5834C30.2083 39.8596 30.3181 40.1246 30.5134 40.3199C30.7088 40.5153 30.9737 40.625 31.25 40.625H33.3333V38.5417H32.2917V37.7459L32.9354 36.4584H35.8146L36.4583 37.7459V38.5417H35.4167V40.625H37.5C37.7763 40.625 38.0412 40.5153 38.2366 40.3199C38.4319 40.1246 38.5417 39.8596 38.5417 39.5834V37.5C38.5415 37.3384 38.5037 37.1789 38.4312 37.0344L37.3896 34.9511C37.3031 34.7781 37.1702 34.6326 37.0058 34.5308C36.8413 34.4291 36.6517 34.3751 36.4583 34.375H35.8687C35.9975 33.8238 36.0838 33.2634 36.1271 32.699C37.1427 33.1792 38.0865 33.7302 38.9042 34.3261C40.9062 35.7865 41.6667 37.1532 41.6667 38.0938V41.6667H8.33333V38.0938C8.33333 37.1532 9.09375 35.7865 11.0958 34.3261C12.1021 33.5917 13.3031 32.9271 14.5906 32.3771C14.6042 32.7 14.6354 33.0271 14.6781 33.3438C14.75 33.8646 14.8573 34.3834 14.9875 34.8292L14.9958 34.8584C14.3731 35.2523 13.9096 35.8537 13.6872 36.5562C13.4649 37.2588 13.4979 38.0173 13.7805 38.6979C14.0632 39.3784 14.5772 39.9372 15.2319 40.2755C15.8865 40.6138 16.6397 40.7099 17.3583 40.5467C18.0769 40.3836 18.7148 39.9718 19.1592 39.384C19.6036 38.7962 19.8261 38.0703 19.7872 37.3344C19.7483 36.5985 19.4506 35.9001 18.9467 35.3624C18.4428 34.8247 17.7651 34.4824 17.0333 34.3959C16.9002 33.96 16.8027 33.5141 16.7417 33.0625C16.6837 32.6587 16.6596 32.2506 16.6698 31.8427C16.6729 31.7552 16.6792 31.6782 16.6854 31.6094C16.8104 31.5709 16.9354 31.5334 17.0604 31.4979L17.4927 32.3167H32.2469L32.7115 31.4334V31.4323ZM16.6667 38.5584C17.2271 38.5584 17.7083 38.1 17.7083 37.5011C17.7083 36.9032 17.2271 36.4438 16.6667 36.4438C16.1062 36.4438 15.625 36.9021 15.625 37.5011C15.625 38.099 16.1062 38.5584 16.6667 38.5584Z" fill="#3947CB" stroke="#3947CB" stroke-width="0.5"/>
</svg>
