<svg width="29" height="29" viewBox="0 0 29 29" fill="none" xmlns="http://www.w3.org/2000/svg">
<circle cx="14.5" cy="14.5" r="14.5" fill="#EF2F00"/>
<path d="M20.9678 8.66426C21.5482 9.24462 21.5482 10.1732 20.9678 10.7536L16.7892 14.9322L20.7357 18.8786C21.316 19.459 21.316 20.3876 20.7357 20.9679C20.1553 21.5483 19.2267 21.5483 18.6464 20.9679L14.6999 17.0215L10.7534 20.9679C10.1731 21.5483 9.2445 21.5483 8.66414 20.9679C8.08378 20.3876 8.08378 19.459 8.66414 18.8786L12.6106 14.9322L8.432 10.7536C7.85163 10.1732 7.85164 9.24462 8.432 8.66426C9.01236 8.0839 9.94094 8.0839 10.5213 8.66426L14.6999 12.8429L18.8785 8.66426C19.4589 8.08389 20.3874 8.08389 20.9678 8.66426Z" fill="white"/>
</svg>
